# xmcd CD database file
#
# Track frame offsets:
#	150
#	21095
#	36579
#	62123
#	92327
#	111838
#	132233
#	154949
#	172738
#	189655
#	207876
#	229499
#	256733
#
# Disc length: 3825 seconds
#
# Revision: 4
# Processed by: cddbd v1.4PL0 Copyright (c) Steve Scherf et al.
# Submitted via: CDex 1.50beta10
#
DISCID=ad0eef0d
DTITLE=John Lee Hooker - The Best of Friends
DYEAR=1998
DGENRE=Blues
TTITLE0=Boogie Chillen (w Eric Clapton)
TTITLE1=This is Hip (w Ry Cooder)
TTITLE2=The Healer (w Carlos Santana)
TTITLE3=I Cover the Waterfront (w Van Morrison)
TTITLE4=Boom Boom (w Jimmie Vaughan)
TTITLE5=I'm in the Mood (w Bonnie Raitt)
TTITLE6=Burnin' Hell (w Ben Harper)
TTITLE7=Tupelo
TTITLE8=Baby Lee
TTITLE9=Dimples (w Los Lobos)
TTITLE10=Chill Out (w Carlos Santana)
TTITLE11=Big Legs Tight Skirt (w Ry Cooder)
TTITLE12=Don't Look Back (w Van Morrison)
EXTD=Virgin Records America, Inc.\nUPC=724384642426 YEAR: 1998
EXTT0=
EXTT1=
EXTT2=
EXTT3=
EXTT4=
EXTT5=
EXTT6=
EXTT7=
EXTT8=
EXTT9=
EXTT10=
EXTT11=
EXTT12=
PLAYORDER=
